<svg width="69" height="60" viewBox="0 0 69 60" fill="none" xmlns="http://www.w3.org/2000/svg">
<path d="M49.6685 0.115723C43.1387 0.115723 37.559 4.77011 34.4935 7.97895C31.4279 4.77011 25.8607 0.115723 19.334 0.115723C8.08435 0.115723 0.230469 7.95715 0.230469 19.1819C0.230469 31.55 9.98474 39.544 19.4212 47.2764C23.8762 50.9308 28.487 54.7066 32.023 58.8937C32.618 59.5946 33.4903 59.9996 34.4062 59.9996H34.5869C35.506 59.9996 36.3752 59.5915 36.9671 58.8937C40.5093 54.7066 45.1169 50.9276 49.575 47.2764C59.0084 39.5471 68.7689 31.5531 68.7689 19.1819C68.7689 7.95715 60.915 0.115723 49.6685 0.115723Z" fill="white" fill-opacity="0.37"/>
</svg>
