<svg width="48" height="63" viewBox="0 0 48 63" fill="none" xmlns="http://www.w3.org/2000/svg">
<path d="M24 0C33.93 0 42 7.98 42 17.85C42 31.23 24 51 24 51C24 51 6 31.23 6 17.85C6 7.98 14.07 0 24 0ZM24 12C22.4087 12 20.8826 12.6321 19.7574 13.7574C18.6321 14.8826 18 16.4087 18 18C18 19.5913 18.6321 21.1174 19.7574 22.2426C20.8826 23.3679 22.4087 24 24 24C25.5913 24 27.1174 23.3679 28.2426 22.2426C29.3679 21.1174 30 19.5913 30 18C30 16.4087 29.3679 14.8826 28.2426 13.7574C27.1174 12.6321 25.5913 12 24 12ZM48 51C48 57.63 37.26 63 24 63C10.74 63 0 57.63 0 51C0 47.13 3.66 43.68 9.33 41.49L11.25 44.22C8.01 45.57 6 47.43 6 49.5C6 53.64 14.07 57 24 57C33.93 57 42 53.64 42 49.5C42 47.43 39.99 45.57 36.75 44.22L38.67 41.49C44.34 43.68 48 47.13 48 51Z" fill="black"/>
</svg>
